<svg xmlns="http://www.w3.org/2000/svg" viewBox="0 0 190 360" fill="none">
  <path d="M26 20C58 68 58 116 39 161C22 201 23 248 52 330" stroke="#B67B55" stroke-width="2.4" stroke-linecap="round"/>
  <path d="M52 330C73 308 87 282 91 246" stroke="#B67B55" stroke-width="1.6" stroke-linecap="round"/>
  <path d="M32 62C59 73 82 91 92 124" stroke="#B67B55" stroke-width="1.5" stroke-linecap="round"/>
  <path d="M42 153C74 143 99 122 112 91" stroke="#B67B55" stroke-width="1.5" stroke-linecap="round"/>
  <path d="M38 211C72 207 100 190 120 157" stroke="#B67B55" stroke-width="1.5" stroke-linecap="round"/>
  <path d="M57 274C83 268 102 252 113 225" stroke="#B67B55" stroke-width="1.5" stroke-linecap="round"/>
  <path d="M25 21C19 45 16 64 24 86" stroke="#B67B55" stroke-width="1.4" stroke-linecap="round"/>
  <path d="M23 85C10 78 4 67 5 54" stroke="#B67B55" stroke-width="1.4" stroke-linecap="round"/>
  <path d="M51 330C38 323 28 311 21 293" stroke="#B67B55" stroke-width="1.4" stroke-linecap="round"/>
  <path d="M21 293C38 289 53 294 66 306" stroke="#B67B55" stroke-width="1.4" stroke-linecap="round"/>
  <ellipse cx="95" cy="124" rx="11" ry="22" transform="rotate(-36 95 124)" stroke="#B67B55" stroke-width="1.5"/>
  <ellipse cx="117" cy="158" rx="10" ry="20" transform="rotate(-35 117 158)" stroke="#B67B55" stroke-width="1.5"/>
  <ellipse cx="112" cy="226" rx="9" ry="18" transform="rotate(-30 112 226)" stroke="#B67B55" stroke-width="1.5"/>
  <ellipse cx="87" cy="246" rx="8" ry="17" transform="rotate(28 87 246)" stroke="#B67B55" stroke-width="1.5"/>
  <ellipse cx="21" cy="83" rx="7" ry="16" transform="rotate(-42 21 83)" stroke="#B67B55" stroke-width="1.4"/>
  <circle cx="33" cy="179" r="4" fill="#C66F4D" opacity=".72"/>
  <circle cx="63" cy="66" r="3.5" fill="#7C8E72" opacity=".65"/>
  <circle cx="74" cy="300" r="3.5" fill="#7C8E72" opacity=".65"/>
  <path d="M141 68C156 82 156 101 141 116C126 101 126 82 141 68Z" stroke="#B67B55" stroke-width="1.4"/>
  <path d="M132 82C143 91 143 103 132 112" stroke="#B67B55" stroke-width="1.2" stroke-linecap="round"/>
  <path d="M146 243C160 257 160 275 146 290C132 275 132 257 146 243Z" stroke="#B67B55" stroke-width="1.4"/>
  <path d="M137 257C147 266 147 277 137 286" stroke="#B67B55" stroke-width="1.2" stroke-linecap="round"/>
  <path d="M17 18C8 31 8 46 18 58" stroke="#D6B393" stroke-width=".9" stroke-linecap="round" opacity=".65"/>
  <path d="M18 342C7 326 7 309 18 295" stroke="#D6B393" stroke-width=".9" stroke-linecap="round" opacity=".65"/>
</svg>
